<?xml version="1.0" encoding="utf-8"?>
<!-- Generator: Adobe Illustrator 15.0.0, SVG Export Plug-In  -->
<!DOCTYPE svg PUBLIC "-//W3C//DTD SVG 1.1//EN" "http://www.w3.org/Graphics/SVG/1.1/DTD/svg11.dtd" [
	<!ENTITY ns_flows "http://ns.adobe.com/Flows/1.0/">
]>
<svg version="1.1"
	 xmlns="http://www.w3.org/2000/svg" xmlns:xlink="http://www.w3.org/1999/xlink" xmlns:a="http://ns.adobe.com/AdobeSVGViewerExtensions/3.0/"
	 x="0px" y="0px" width="330px" height="268px" viewBox="-8.731 -9.787 330 268"
	 overflow="visible" enable-background="new -8.731 -9.787 330 268" xml:space="preserve">
<defs>
</defs>
<path fill-rule="evenodd" clip-rule="evenodd" d="M309.125,241.168c-7.93,11.438-23.705,14.312-35.182,6.38l-103.936-71.68
	c-7.355-5.059-11.165-13.306-10.88-21.597c-13.389,14.31-30.974,23.921-50.674,27.49c-24.197,4.397-48.633-0.861-68.802-14.771
	C19.475,153.08,5.931,132.155,1.52,108.059c-4.411-24.114,0.853-48.479,14.824-68.6C45.201-2.084,102.6-12.5,144.304,16.248
	c37.851,26.12,49.948,75.677,30.271,115.677c7.689-3.221,16.807-2.592,24.2,2.502l103.963,71.677
	C314.215,214.037,317.086,229.727,309.125,241.168z M155.042,80.18c-3.068-16.806-12.505-31.395-26.573-41.091
	C99.401,19.029,59.366,26.281,39.223,55.248c-20.115,29.003-12.828,68.89,16.243,88.923c29.071,20.061,69.101,12.811,89.238-16.167
	C154.444,113.979,158.116,96.994,155.042,80.18z"/>
</svg>
